# xmcd
#
# Track frame offsets: 
#        150
#        15375
#        29043
#        41263
#        60721
#        75283
#        93511
#        114363
#        133275
#        151223
#        163876
#        182496
#
# Disc length: 2609 seconds
#
# Revision: 0
# Processed by: cddbd v1.5.2PL0 Copyright (c) Steve Scherf et al.
# Submitted via: ExactAudioCopy v1.2
#
DISCID=8e0a2f0c
DTITLE=Mike Goudreau and the Boppin Blues Band - Sweet Blues
DYEAR=2016
DGENRE=Blues
TTITLE0=Bop Till You Drop
TTITLE1=Sweet Blues
TTITLE2=Get a Real Job
TTITLE3=Gonna Find Somebody Else
TTITLE4=Dues for Lou
TTITLE5=Never Been Good at Goodbyes
TTITLE6=Good Advice
TTITLE7=Since We've Met
TTITLE8=Last Call Blues
TTITLE9=When You've Got Friends
TTITLE10=Time for Messin Around
TTITLE11=Long Gone
EXTD=
EXTT0=
EXTT1=
EXTT2=
EXTT3=
EXTT4=
EXTT5=
EXTT6=
EXTT7=
EXTT8=
EXTT9=
EXTT10=
EXTT11=
PLAYORDER=
